<svg width="2000" height="1073" viewBox="0 0 2000 1073" fill="none" xmlns="http://www.w3.org/2000/svg">
<g filter="url(#filter0_f_1512_631)">
<rect x="300" y="510" width="1400" height="165" rx="10" fill="url(#paint0_linear_1512_631)"/>
</g>
<path d="M344.691 872.031C575.506 901.729 972.91 916.391 716.006 737.445C459.102 558.499 472.756 305.493 714.176 438.04C805.966 587.034 994.647 821.826 1015.05 569.041C1040.55 253.06 1098.1 25.488 1200.2 215.199C1302.31 404.91 1457.38 648.772 1533.71 381.049" stroke="url(#paint1_linear_1512_631)" stroke-width="2"/>
<path d="M369.497 161.206C451.38 379.043 624.584 737.017 662.34 426.219C700.096 115.42 930.022 8.96694 926.007 284.35C837.368 435.241 718.314 711.924 951.206 611.537C1242.32 486.053 1470.34 430.294 1350.56 609.368C1230.78 788.443 1087.96 1039.68 1360.26 981.713" stroke="url(#paint2_linear_1512_631)" stroke-width="2"/>
<path d="M345.995 830.862C573.191 881.259 967.653 931.705 727.936 730.317C488.22 528.928 524.639 278.185 753.119 431.967C831.096 588.633 997.831 839.486 1040.95 589.572C1094.85 277.18 1172.69 55.7257 1257.26 253.873C1341.84 452.02 1474.28 708.875 1574.45 449.128" stroke="url(#paint3_linear_1512_631)" stroke-width="2"/>
<path d="M346.448 788.368C568.444 858.193 957.078 942.509 735.644 721.175C514.211 499.842 572.142 253.179 786.492 426.114C850.652 588.927 995.105 853.239 1059.64 607.982C1140.31 301.41 1236.98 87.503 1304.13 292.212C1371.28 496.921 1481.06 764.253 1603.28 514.125" stroke="url(#paint4_linear_1512_631)" stroke-width="2"/>
<path d="M346.367 744.935C561.847 832.831 942.202 948.914 739.778 710.071C537.355 471.228 615.434 230.184 814.79 420.209C865.302 587.759 987.463 863.086 1072.01 623.987C1177.69 325.113 1291.67 119.908 1341.71 329.458C1391.75 539.009 1479.1 814.483 1621.53 575.288" stroke="url(#paint5_linear_1512_631)" stroke-width="2"/>
<path d="M346.052 700.91C553.955 805.475 924.006 951.102 740.987 697.084C557.967 443.066 654.755 208.906 838.555 414.016C875.738 585.019 975.875 869.097 1078.96 637.385C1207.81 347.745 1337.57 152.136 1370.98 364.972C1404.39 577.808 1469.81 859.297 1630.61 632.041" stroke="url(#paint6_linear_1512_631)" stroke-width="2"/>
<path d="M345.727 656.661C545.232 776.476 903.361 949.359 739.843 682.37C576.325 415.381 690.347 189.112 858.299 407.388C882.595 580.692 961.214 871.461 1081.33 648.103C1231.47 368.906 1375.49 183.546 1392.9 398.283C1410.3 613.021 1454.5 898.613 1631.84 684.014" stroke="url(#paint7_linear_1512_631)" stroke-width="2"/>
<path d="M345.557 612.557C536.065 746.214 881.037 944.051 736.858 666.141C592.68 388.231 722.456 170.615 874.511 400.248C886.459 574.839 944.267 870.45 1079.91 656.17C1249.47 388.319 1406.27 213.635 1408.41 429.066C1410.55 644.498 1434.39 932.504 1626.49 731.017" stroke="url(#paint8_linear_1512_631)" stroke-width="2"/>
<path d="M345.654 568.951C526.775 715.077 857.71 935.592 732.484 648.643C607.257 361.694 751.328 153.266 887.649 392.575C887.868 567.574 925.732 866.395 1075.44 661.689C1262.57 405.806 1430.72 242.025 1418.42 457.115C1406.11 672.205 1410.59 961.161 1615.77 773.005" stroke="url(#paint9_linear_1512_631)" stroke-width="2"/>
<path d="M346.089 526.184C517.619 683.459 833.965 924.436 727.113 630.151C620.261 335.865 777.209 136.954 898.142 384.395C887.307 559.058 906.221 859.674 1068.56 664.833C1271.48 421.28 1449.64 268.448 1423.77 482.331C1397.91 696.214 1384.12 984.876 1600.78 810.055" stroke="url(#paint10_linear_1512_631)" stroke-width="2"/>
<path d="M346.894 484.578C508.796 651.747 810.296 911.059 721.082 610.955C631.869 310.851 800.336 121.596 906.384 375.773C885.21 549.487 886.265 850.695 1059.87 665.822C1276.87 434.731 1463.79 292.732 1425.28 504.705C1386.78 716.678 1355.9 1004.02 1582.54 842.349" stroke="url(#paint11_linear_1512_631)" stroke-width="2"/>
<path d="M348.069 444.433C500.456 620.319 787.119 895.945 714.677 591.357C642.236 286.769 820.934 107.144 912.73 366.808C881.96 539.081 866.318 839.885 1049.9 664.919C1279.38 446.212 1473.88 314.792 1423.68 524.305C1373.49 733.817 1326.73 1019 1561.99 870.146" stroke="url(#paint12_linear_1512_631)" stroke-width="2"/>
<path d="M349.588 406.025C492.703 589.534 764.773 879.574 708.133 571.656C651.493 263.739 839.215 93.5661 917.5 357.618C877.889 528.075 846.757 827.673 1039.12 662.406C1279.57 455.822 1480.59 334.605 1419.65 541.251C1358.72 747.897 1297.33 1030.29 1539.94 893.764" stroke="url(#paint13_linear_1512_631)" stroke-width="2"/>
<path d="M351.404 369.604C485.604 559.731 743.531 862.416 701.641 552.148C659.751 241.879 855.376 80.8531 920.978 348.338C873.283 516.712 827.897 814.484 1027.92 658.579C1277.95 463.698 1484.52 352.207 1413.8 555.711C1343.08 759.216 1268.29 1038.36 1517.14 913.56" stroke="url(#paint14_linear_1512_631)" stroke-width="2"/>
<path d="M353.459 335.401C479.198 531.226 723.613 844.924 695.36 533.118C667.107 221.312 869.601 69.0132 923.418 339.117C868.389 505.239 809.998 800.735 1016.66 653.746C1274.99 470.009 1486.25 367.678 1406.68 567.888C1327.11 768.097 1240.16 1043.7 1494.24 929.921" stroke="url(#paint15_linear_1512_631)" stroke-width="2"/>
<path d="M355.68 303.617C473.495 504.309 705.181 827.521 689.409 514.835C673.636 202.149 882.053 58.0627 925.035 330.101C863.413 493.891 793.263 786.819 1005.64 648.204C1271.1 474.936 1486.28 381.126 1398.77 577.997C1311.27 774.868 1213.37 1046.77 1471.8 943.24" stroke="url(#paint16_linear_1512_631)" stroke-width="2"/>
<path d="M357.991 274.428C468.487 479.241 688.361 810.603 683.881 497.551C679.401 184.5 892.881 48.0271 926.02 321.439C858.528 482.899 777.854 773.105 995.09 642.244C1266.63 478.666 1485.06 392.682 1390.5 586.267C1295.95 779.853 1188.31 1048.05 1450.3 953.907" stroke="url(#paint17_linear_1512_631)" stroke-width="2"/>
<path d="M360.312 247.996C464.154 456.261 673.239 794.534 678.846 481.5C684.452 168.467 902.217 38.9417 926.532 313.279C853.875 472.482 763.894 759.938 985.233 636.142C1261.91 481.397 1482.98 402.493 1382.24 592.932C1281.51 783.371 1165.28 1047.96 1430.17 962.307" stroke="url(#paint18_linear_1512_631)" stroke-width="2"/>
<path d="M362.564 224.452C460.462 435.577 659.877 779.639 674.353 466.89C688.828 154.141 910.176 30.8392 926.707 305.755C849.567 462.835 751.476 747.626 976.234 630.152C1257.18 483.31 1480.41 410.703 1374.31 598.211C1268.22 785.718 1144.54 1046.91 1411.75 968.795" stroke="url(#paint19_linear_1512_631)" stroke-width="2"/>
<path d="M364.675 203.913C457.378 417.37 648.315 766.208 670.438 453.907C692.561 141.606 916.86 23.7571 926.659 298.995C845.699 454.141 740.669 736.447 968.234 624.507C1252.69 484.582 1477.62 417.459 1366.97 602.315C1256.32 787.17 1126.29 1045.25 1395.33 973.705" stroke="url(#paint20_linear_1512_631)" stroke-width="2"/>
<path d="M366.572 186.477C454.859 401.797 638.572 754.494 667.122 442.715C695.672 130.936 922.351 17.7309 926.479 293.113C842.341 446.558 731.52 726.641 961.342 619.411C1248.62 485.375 1474.89 422.898 1360.45 605.436C1246.02 787.974 1110.7 1043.32 1381.16 977.331" stroke="url(#paint21_linear_1512_631)" stroke-width="2"/>
<path d="M368.197 172.22C452.871 388.987 630.66 744.706 664.42 433.448C698.18 122.19 926.719 12.7913 926.243 288.203C839.55 440.22 724.061 718.411 955.644 615.04C1245.12 485.826 1472.4 427.141 1354.93 607.74C1237.46 788.339 1097.89 1041.39 1369.42 979.929" stroke="url(#paint22_linear_1512_631)" stroke-width="2"/>
<defs>
<filter id="filter0_f_1512_631" x="0" y="210" width="2000" height="765" filterUnits="userSpaceOnUse" color-interpolation-filters="sRGB">
<feFlood flood-opacity="0" result="BackgroundImageFix"/>
<feBlend mode="normal" in="SourceGraphic" in2="BackgroundImageFix" result="shape"/>
<feGaussianBlur stdDeviation="150" result="effect1_foregroundBlur_1512_631"/>
</filter>
<linearGradient id="paint0_linear_1512_631" x1="329.167" y1="535.045" x2="1455.89" y2="1120.9" gradientUnits="userSpaceOnUse">
<stop stop-color="#3F8AE2"/>
<stop offset="0.435" stop-color="#0075F2"/>
<stop offset="0.77" stop-color="#00206E"/>
<stop offset="1" stop-color="#0B023B"/>
</linearGradient>
<linearGradient id="paint1_linear_1512_631" x1="806.958" y1="261.686" x2="996.94" y2="785.838" gradientUnits="userSpaceOnUse">
<stop stop-color="#4446ED"/>
<stop offset="0.31" stop-color="#126AF8"/>
<stop offset="0.535" stop-color="#099FF4"/>
<stop offset="0.685" stop-color="#38A3F0"/>
<stop offset="0.86" stop-color="#21A1F2"/>
<stop offset="1" stop-color="#68A7EB"/>
</linearGradient>
<linearGradient id="paint2_linear_1512_631" x1="1125.28" y1="283.713" x2="751.183" y2="697.093" gradientUnits="userSpaceOnUse">
<stop stop-color="#4446ED"/>
<stop offset="0.31" stop-color="#126AF8"/>
<stop offset="0.535" stop-color="#099FF4"/>
<stop offset="0.685" stop-color="#38A3F0"/>
<stop offset="0.86" stop-color="#21A1F2"/>
<stop offset="1" stop-color="#68A7EB"/>
</linearGradient>
<linearGradient id="paint3_linear_1512_631" x1="861.43" y1="264.7" x2="1003.36" y2="803.852" gradientUnits="userSpaceOnUse">
<stop stop-color="#4446ED"/>
<stop offset="0.31" stop-color="#126AF8"/>
<stop offset="0.535" stop-color="#099FF4"/>
<stop offset="0.685" stop-color="#38A3F0"/>
<stop offset="0.86" stop-color="#21A1F2"/>
<stop offset="1" stop-color="#68A7EB"/>
</linearGradient>
<linearGradient id="paint4_linear_1512_631" x1="908.84" y1="268.823" x2="1003.69" y2="818.216" gradientUnits="userSpaceOnUse">
<stop stop-color="#4446ED"/>
<stop offset="0.31" stop-color="#126AF8"/>
<stop offset="0.535" stop-color="#099FF4"/>
<stop offset="0.685" stop-color="#38A3F0"/>
<stop offset="0.86" stop-color="#21A1F2"/>
<stop offset="1" stop-color="#68A7EB"/>
</linearGradient>
<linearGradient id="paint5_linear_1512_631" x1="949.694" y1="273.546" x2="998.908" y2="828.89" gradientUnits="userSpaceOnUse">
<stop stop-color="#4446ED"/>
<stop offset="0.31" stop-color="#126AF8"/>
<stop offset="0.535" stop-color="#099FF4"/>
<stop offset="0.685" stop-color="#38A3F0"/>
<stop offset="0.86" stop-color="#21A1F2"/>
<stop offset="1" stop-color="#68A7EB"/>
</linearGradient>
<linearGradient id="paint6_linear_1512_631" x1="984.572" y1="278.413" x2="989.973" y2="835.907" gradientUnits="userSpaceOnUse">
<stop stop-color="#4446ED"/>
<stop offset="0.31" stop-color="#126AF8"/>
<stop offset="0.535" stop-color="#099FF4"/>
<stop offset="0.685" stop-color="#38A3F0"/>
<stop offset="0.86" stop-color="#21A1F2"/>
<stop offset="1" stop-color="#68A7EB"/>
</linearGradient>
<linearGradient id="paint7_linear_1512_631" x1="1014.04" y1="283.08" x2="977.754" y2="839.418" gradientUnits="userSpaceOnUse">
<stop stop-color="#4446ED"/>
<stop offset="0.31" stop-color="#126AF8"/>
<stop offset="0.535" stop-color="#099FF4"/>
<stop offset="0.685" stop-color="#38A3F0"/>
<stop offset="0.86" stop-color="#21A1F2"/>
<stop offset="1" stop-color="#68A7EB"/>
</linearGradient>
<linearGradient id="paint8_linear_1512_631" x1="1038.68" y1="287.295" x2="963.037" y2="839.66" gradientUnits="userSpaceOnUse">
<stop stop-color="#4446ED"/>
<stop offset="0.31" stop-color="#126AF8"/>
<stop offset="0.535" stop-color="#099FF4"/>
<stop offset="0.685" stop-color="#38A3F0"/>
<stop offset="0.86" stop-color="#21A1F2"/>
<stop offset="1" stop-color="#68A7EB"/>
</linearGradient>
<linearGradient id="paint9_linear_1512_631" x1="1059.02" y1="290.879" x2="946.523" y2="836.933" gradientUnits="userSpaceOnUse">
<stop stop-color="#4446ED"/>
<stop offset="0.31" stop-color="#126AF8"/>
<stop offset="0.535" stop-color="#099FF4"/>
<stop offset="0.685" stop-color="#38A3F0"/>
<stop offset="0.86" stop-color="#21A1F2"/>
<stop offset="1" stop-color="#68A7EB"/>
</linearGradient>
<linearGradient id="paint10_linear_1512_631" x1="1075.59" y1="293.726" x2="928.832" y2="831.584" gradientUnits="userSpaceOnUse">
<stop stop-color="#4446ED"/>
<stop offset="0.31" stop-color="#126AF8"/>
<stop offset="0.535" stop-color="#099FF4"/>
<stop offset="0.685" stop-color="#38A3F0"/>
<stop offset="0.86" stop-color="#21A1F2"/>
<stop offset="1" stop-color="#68A7EB"/>
</linearGradient>
<linearGradient id="paint11_linear_1512_631" x1="1088.9" y1="295.786" x2="910.502" y2="823.995" gradientUnits="userSpaceOnUse">
<stop stop-color="#4446ED"/>
<stop offset="0.31" stop-color="#126AF8"/>
<stop offset="0.535" stop-color="#099FF4"/>
<stop offset="0.685" stop-color="#38A3F0"/>
<stop offset="0.86" stop-color="#21A1F2"/>
<stop offset="1" stop-color="#68A7EB"/>
</linearGradient>
<linearGradient id="paint12_linear_1512_631" x1="1099.4" y1="297.061" x2="891.997" y2="814.569" gradientUnits="userSpaceOnUse">
<stop stop-color="#4446ED"/>
<stop offset="0.31" stop-color="#126AF8"/>
<stop offset="0.535" stop-color="#099FF4"/>
<stop offset="0.685" stop-color="#38A3F0"/>
<stop offset="0.86" stop-color="#21A1F2"/>
<stop offset="1" stop-color="#68A7EB"/>
</linearGradient>
<linearGradient id="paint13_linear_1512_631" x1="1107.51" y1="297.589" x2="873.707" y2="803.715" gradientUnits="userSpaceOnUse">
<stop stop-color="#4446ED"/>
<stop offset="0.31" stop-color="#126AF8"/>
<stop offset="0.535" stop-color="#099FF4"/>
<stop offset="0.685" stop-color="#38A3F0"/>
<stop offset="0.86" stop-color="#21A1F2"/>
<stop offset="1" stop-color="#68A7EB"/>
</linearGradient>
<linearGradient id="paint14_linear_1512_631" x1="1113.64" y1="297.44" x2="855.96" y2="791.838" gradientUnits="userSpaceOnUse">
<stop stop-color="#4446ED"/>
<stop offset="0.31" stop-color="#126AF8"/>
<stop offset="0.535" stop-color="#099FF4"/>
<stop offset="0.685" stop-color="#38A3F0"/>
<stop offset="0.86" stop-color="#21A1F2"/>
<stop offset="1" stop-color="#68A7EB"/>
</linearGradient>
<linearGradient id="paint15_linear_1512_631" x1="1118.12" y1="296.71" x2="839.026" y2="779.341" gradientUnits="userSpaceOnUse">
<stop stop-color="#4446ED"/>
<stop offset="0.31" stop-color="#126AF8"/>
<stop offset="0.535" stop-color="#099FF4"/>
<stop offset="0.685" stop-color="#38A3F0"/>
<stop offset="0.86" stop-color="#21A1F2"/>
<stop offset="1" stop-color="#68A7EB"/>
</linearGradient>
<linearGradient id="paint16_linear_1512_631" x1="1121.28" y1="295.507" x2="823.123" y2="766.602" gradientUnits="userSpaceOnUse">
<stop stop-color="#4446ED"/>
<stop offset="0.31" stop-color="#126AF8"/>
<stop offset="0.535" stop-color="#099FF4"/>
<stop offset="0.685" stop-color="#38A3F0"/>
<stop offset="0.86" stop-color="#21A1F2"/>
<stop offset="1" stop-color="#68A7EB"/>
</linearGradient>
<linearGradient id="paint17_linear_1512_631" x1="1123.39" y1="293.949" x2="808.423" y2="753.979" gradientUnits="userSpaceOnUse">
<stop stop-color="#4446ED"/>
<stop offset="0.31" stop-color="#126AF8"/>
<stop offset="0.535" stop-color="#099FF4"/>
<stop offset="0.685" stop-color="#38A3F0"/>
<stop offset="0.86" stop-color="#21A1F2"/>
<stop offset="1" stop-color="#68A7EB"/>
</linearGradient>
<linearGradient id="paint18_linear_1512_631" x1="1124.68" y1="292.16" x2="795.064" y2="741.806" gradientUnits="userSpaceOnUse">
<stop stop-color="#4446ED"/>
<stop offset="0.31" stop-color="#126AF8"/>
<stop offset="0.535" stop-color="#099FF4"/>
<stop offset="0.685" stop-color="#38A3F0"/>
<stop offset="0.86" stop-color="#21A1F2"/>
<stop offset="1" stop-color="#68A7EB"/>
</linearGradient>
<linearGradient id="paint19_linear_1512_631" x1="1125.37" y1="290.261" x2="783.147" y2="730.385" gradientUnits="userSpaceOnUse">
<stop stop-color="#4446ED"/>
<stop offset="0.31" stop-color="#126AF8"/>
<stop offset="0.535" stop-color="#099FF4"/>
<stop offset="0.685" stop-color="#38A3F0"/>
<stop offset="0.86" stop-color="#21A1F2"/>
<stop offset="1" stop-color="#68A7EB"/>
</linearGradient>
<linearGradient id="paint20_linear_1512_631" x1="1125.65" y1="288.366" x2="772.753" y2="719.985" gradientUnits="userSpaceOnUse">
<stop stop-color="#4446ED"/>
<stop offset="0.31" stop-color="#126AF8"/>
<stop offset="0.535" stop-color="#099FF4"/>
<stop offset="0.685" stop-color="#38A3F0"/>
<stop offset="0.86" stop-color="#21A1F2"/>
<stop offset="1" stop-color="#68A7EB"/>
</linearGradient>
<linearGradient id="paint21_linear_1512_631" x1="1125.64" y1="286.584" x2="763.935" y2="710.844" gradientUnits="userSpaceOnUse">
<stop stop-color="#4446ED"/>
<stop offset="0.31" stop-color="#126AF8"/>
<stop offset="0.535" stop-color="#099FF4"/>
<stop offset="0.685" stop-color="#38A3F0"/>
<stop offset="0.86" stop-color="#21A1F2"/>
<stop offset="1" stop-color="#68A7EB"/>
</linearGradient>
<linearGradient id="paint22_linear_1512_631" x1="1125.49" y1="285.006" x2="756.736" y2="703.158" gradientUnits="userSpaceOnUse">
<stop stop-color="#4446ED"/>
<stop offset="0.31" stop-color="#126AF8"/>
<stop offset="0.535" stop-color="#099FF4"/>
<stop offset="0.685" stop-color="#38A3F0"/>
<stop offset="0.86" stop-color="#21A1F2"/>
<stop offset="1" stop-color="#68A7EB"/>
</linearGradient>
</defs>
</svg>
