<svg width="1303" height="894" viewBox="0 0 1303 894" fill="none" xmlns="http://www.w3.org/2000/svg">
<path d="M2.69079 761.031C233.506 790.729 630.91 805.391 374.006 626.445C117.102 447.499 130.756 194.493 372.176 327.04C463.966 476.034 652.647 710.826 673.049 458.041C698.552 142.06 756.099 -85.512 858.202 104.199C960.305 293.91 1115.38 537.772 1191.71 270.049" stroke="url(#paint0_linear_1512_631)" stroke-width="2"/>
<path d="M27.4975 50.2063C109.38 268.043 282.584 626.017 320.34 315.219C358.096 4.41997 588.022 -102.033 584.007 173.35C495.368 324.241 376.314 600.924 609.206 500.537C900.321 375.053 1128.34 319.294 1008.56 498.368C888.776 677.443 745.965 928.681 1018.26 870.713" stroke="url(#paint1_linear_1512_631)" stroke-width="2"/>
<path d="M3.99536 719.862C231.191 770.259 625.653 820.705 385.936 619.317C146.22 417.928 182.639 167.185 411.119 320.967C489.096 477.633 655.831 728.486 698.95 478.572C752.85 166.18 830.689 -55.2743 915.264 142.873C999.84 341.02 1132.28 597.875 1232.45 338.128" stroke="url(#paint2_linear_1512_631)" stroke-width="2"/>
<path d="M4.44839 677.368C226.444 747.193 615.078 831.509 393.644 610.175C172.211 388.842 230.142 142.179 444.492 315.114C508.652 477.927 653.105 742.239 717.641 496.982C798.311 190.41 894.98 -23.497 962.131 181.212C1029.28 385.921 1139.06 653.253 1261.28 403.125" stroke="url(#paint3_linear_1512_631)" stroke-width="2"/>
<path d="M4.36668 633.935C219.847 721.831 600.202 837.914 397.778 599.071C195.355 360.228 273.434 119.184 472.79 309.209C523.302 476.759 645.463 752.086 730.008 512.987C835.689 214.113 949.671 8.90801 999.709 218.458C1049.75 428.009 1137.1 703.483 1279.53 464.288" stroke="url(#paint4_linear_1512_631)" stroke-width="2"/>
<path d="M4.05183 589.91C211.955 694.475 582.006 840.102 398.987 586.084C215.967 332.066 312.755 97.9065 496.555 303.016C533.738 474.019 633.875 758.097 736.956 526.385C865.807 236.745 995.569 41.1363 1028.98 253.972C1062.39 466.808 1127.81 748.297 1288.61 521.041" stroke="url(#paint5_linear_1512_631)" stroke-width="2"/>
<path d="M3.72718 545.661C203.232 665.476 561.361 838.359 397.843 571.37C234.325 304.381 348.347 78.1122 516.299 296.388C540.595 469.692 619.214 760.461 739.329 537.103C889.472 257.906 1033.49 72.5456 1050.9 287.283C1068.3 502.021 1112.5 787.613 1289.84 573.014" stroke="url(#paint6_linear_1512_631)" stroke-width="2"/>
<path d="M3.55665 501.557C194.065 635.214 539.037 833.051 394.858 555.141C250.68 277.231 380.456 59.6153 532.511 289.248C544.459 463.839 602.267 759.45 737.914 545.17C907.473 277.319 1064.27 102.635 1066.41 318.066C1068.55 533.498 1092.39 821.504 1284.49 620.017" stroke="url(#paint7_linear_1512_631)" stroke-width="2"/>
<path d="M3.65388 457.951C184.775 604.077 515.71 824.592 390.484 537.643C265.257 250.694 409.328 42.2665 545.649 281.575C545.868 456.574 583.732 755.395 733.437 550.689C920.568 294.806 1088.72 131.025 1076.42 346.115C1064.11 561.205 1068.59 850.161 1273.77 662.005" stroke="url(#paint8_linear_1512_631)" stroke-width="2"/>
<path d="M4.08902 415.184C175.619 572.459 491.965 813.436 385.113 519.151C278.261 224.865 435.209 25.9536 556.142 273.395C545.307 448.058 564.221 748.674 726.557 553.833C929.477 310.28 1107.64 157.448 1081.77 371.331C1055.91 585.214 1042.12 873.876 1258.78 699.055" stroke="url(#paint9_linear_1512_631)" stroke-width="2"/>
<path d="M4.89382 373.578C166.796 540.747 468.296 800.059 379.082 499.955C289.869 199.851 458.336 10.5961 564.384 264.773C543.21 438.487 544.265 739.695 717.869 554.822C934.874 323.731 1121.79 181.732 1083.28 393.705C1044.78 605.678 1013.9 893.015 1240.54 731.349" stroke="url(#paint10_linear_1512_631)" stroke-width="2"/>
<path d="M6.06929 333.433C158.456 509.319 445.119 784.945 372.677 480.357C300.236 175.769 478.934 -3.85626 570.73 255.808C539.96 428.081 524.318 728.885 707.902 553.919C937.382 335.212 1131.88 203.792 1081.68 413.305C1031.49 622.817 984.734 908.001 1219.99 759.146" stroke="url(#paint11_linear_1512_631)" stroke-width="2"/>
<path d="M7.58782 295.025C150.703 478.534 422.773 768.574 366.133 460.656C309.493 152.739 497.215 -17.4339 575.5 246.618C535.889 417.075 504.757 716.673 697.118 551.406C937.57 344.822 1138.59 223.605 1077.65 430.251C1016.72 636.897 955.325 919.291 1197.94 782.764" stroke="url(#paint12_linear_1512_631)" stroke-width="2"/>
<path d="M9.4041 258.604C143.604 448.731 401.531 751.416 359.641 441.148C317.751 130.879 513.376 -30.1469 578.978 237.338C531.283 405.712 485.897 703.484 685.922 547.579C935.953 352.698 1142.52 241.207 1071.8 444.711C1001.08 648.216 926.29 927.36 1175.14 802.56" stroke="url(#paint13_linear_1512_631)" stroke-width="2"/>
<path d="M11.4589 224.401C137.198 420.226 381.613 733.924 353.36 422.118C325.107 110.312 527.601 -41.9868 581.418 228.117C526.389 394.239 467.998 689.735 674.663 542.746C932.995 359.009 1144.25 256.678 1064.68 456.888C985.112 657.097 898.157 932.696 1152.24 818.921" stroke="url(#paint14_linear_1512_631)" stroke-width="2"/>
<path d="M13.6798 192.617C131.495 393.309 363.181 716.521 347.409 403.835C331.636 91.1492 540.053 -52.9373 583.035 219.101C521.413 382.891 451.263 675.819 663.636 537.204C929.102 363.936 1144.28 270.126 1056.77 466.997C969.268 663.868 871.371 935.772 1129.8 832.24" stroke="url(#paint15_linear_1512_631)" stroke-width="2"/>
<path d="M15.9908 163.428C126.487 368.241 346.361 699.603 341.881 386.551C337.401 73.4996 550.881 -62.9729 584.02 210.439C516.528 371.899 435.854 662.105 653.09 531.244C924.635 367.666 1143.06 281.682 1048.5 475.267C953.953 668.853 846.308 937.048 1108.3 842.907" stroke="url(#paint16_linear_1512_631)" stroke-width="2"/>
<path d="M18.312 136.996C122.154 345.261 331.239 683.534 336.846 370.5C342.452 57.4669 560.217 -72.0583 584.532 202.279C511.875 361.482 421.894 648.938 643.233 525.142C919.906 370.397 1140.98 291.493 1040.24 481.932C939.507 672.371 823.279 936.959 1088.17 851.307" stroke="url(#paint17_linear_1512_631)" stroke-width="2"/>
<path d="M20.5641 113.452C118.462 324.577 317.877 668.639 332.353 355.89C346.828 43.141 568.176 -80.1608 584.707 194.755C507.567 351.835 409.476 636.626 634.234 519.152C915.181 372.31 1138.41 299.703 1032.31 487.211C926.217 674.718 802.537 935.907 1069.75 857.795" stroke="url(#paint18_linear_1512_631)" stroke-width="2"/>
<path d="M22.6745 92.9133C115.378 306.37 306.315 655.208 328.438 342.907C350.561 30.6062 574.86 -87.2429 584.659 187.995C503.699 343.141 398.669 625.447 626.234 513.507C910.69 373.582 1135.62 306.459 1024.97 491.315C914.323 676.17 784.29 934.254 1053.33 862.705" stroke="url(#paint19_linear_1512_631)" stroke-width="2"/>
<path d="M24.5721 75.4769C112.859 290.797 296.572 643.494 325.122 331.715C353.672 19.9357 580.351 -93.2691 584.479 182.113C500.341 335.558 389.52 615.641 619.342 508.411C906.619 374.375 1132.89 311.898 1018.45 494.436C904.02 676.974 768.699 932.325 1039.16 866.331" stroke="url(#paint20_linear_1512_631)" stroke-width="2"/>
<path d="M26.1969 61.2201C110.871 277.987 288.66 633.706 322.42 322.448C356.18 11.1897 584.719 -98.2087 584.243 177.203C497.55 329.22 382.061 607.411 613.644 504.04C903.123 374.826 1130.4 316.141 1012.93 496.74C895.464 677.339 755.892 930.391 1027.42 868.929" stroke="url(#paint21_linear_1512_631)" stroke-width="2"/>
<defs>
<linearGradient id="paint0_linear_1512_631" x1="464.958" y1="150.686" x2="654.94" y2="674.838" gradientUnits="userSpaceOnUse">
<stop stop-color="#4446ED"/>
<stop offset="0.31" stop-color="#126AF8"/>
<stop offset="0.535" stop-color="#099FF4"/>
<stop offset="0.685" stop-color="#38A3F0"/>
<stop offset="0.86" stop-color="#21A1F2"/>
<stop offset="1" stop-color="#68A7EB"/>
</linearGradient>
<linearGradient id="paint1_linear_1512_631" x1="783.277" y1="172.713" x2="409.183" y2="586.093" gradientUnits="userSpaceOnUse">
<stop stop-color="#4446ED"/>
<stop offset="0.31" stop-color="#126AF8"/>
<stop offset="0.535" stop-color="#099FF4"/>
<stop offset="0.685" stop-color="#38A3F0"/>
<stop offset="0.86" stop-color="#21A1F2"/>
<stop offset="1" stop-color="#68A7EB"/>
</linearGradient>
<linearGradient id="paint2_linear_1512_631" x1="519.43" y1="153.7" x2="661.36" y2="692.852" gradientUnits="userSpaceOnUse">
<stop stop-color="#4446ED"/>
<stop offset="0.31" stop-color="#126AF8"/>
<stop offset="0.535" stop-color="#099FF4"/>
<stop offset="0.685" stop-color="#38A3F0"/>
<stop offset="0.86" stop-color="#21A1F2"/>
<stop offset="1" stop-color="#68A7EB"/>
</linearGradient>
<linearGradient id="paint3_linear_1512_631" x1="566.84" y1="157.823" x2="661.691" y2="707.216" gradientUnits="userSpaceOnUse">
<stop stop-color="#4446ED"/>
<stop offset="0.31" stop-color="#126AF8"/>
<stop offset="0.535" stop-color="#099FF4"/>
<stop offset="0.685" stop-color="#38A3F0"/>
<stop offset="0.86" stop-color="#21A1F2"/>
<stop offset="1" stop-color="#68A7EB"/>
</linearGradient>
<linearGradient id="paint4_linear_1512_631" x1="607.694" y1="162.546" x2="656.908" y2="717.89" gradientUnits="userSpaceOnUse">
<stop stop-color="#4446ED"/>
<stop offset="0.31" stop-color="#126AF8"/>
<stop offset="0.535" stop-color="#099FF4"/>
<stop offset="0.685" stop-color="#38A3F0"/>
<stop offset="0.86" stop-color="#21A1F2"/>
<stop offset="1" stop-color="#68A7EB"/>
</linearGradient>
<linearGradient id="paint5_linear_1512_631" x1="642.572" y1="167.413" x2="647.973" y2="724.907" gradientUnits="userSpaceOnUse">
<stop stop-color="#4446ED"/>
<stop offset="0.31" stop-color="#126AF8"/>
<stop offset="0.535" stop-color="#099FF4"/>
<stop offset="0.685" stop-color="#38A3F0"/>
<stop offset="0.86" stop-color="#21A1F2"/>
<stop offset="1" stop-color="#68A7EB"/>
</linearGradient>
<linearGradient id="paint6_linear_1512_631" x1="672.045" y1="172.08" x2="635.754" y2="728.418" gradientUnits="userSpaceOnUse">
<stop stop-color="#4446ED"/>
<stop offset="0.31" stop-color="#126AF8"/>
<stop offset="0.535" stop-color="#099FF4"/>
<stop offset="0.685" stop-color="#38A3F0"/>
<stop offset="0.86" stop-color="#21A1F2"/>
<stop offset="1" stop-color="#68A7EB"/>
</linearGradient>
<linearGradient id="paint7_linear_1512_631" x1="696.677" y1="176.295" x2="621.037" y2="728.66" gradientUnits="userSpaceOnUse">
<stop stop-color="#4446ED"/>
<stop offset="0.31" stop-color="#126AF8"/>
<stop offset="0.535" stop-color="#099FF4"/>
<stop offset="0.685" stop-color="#38A3F0"/>
<stop offset="0.86" stop-color="#21A1F2"/>
<stop offset="1" stop-color="#68A7EB"/>
</linearGradient>
<linearGradient id="paint8_linear_1512_631" x1="717.017" y1="179.879" x2="604.523" y2="725.933" gradientUnits="userSpaceOnUse">
<stop stop-color="#4446ED"/>
<stop offset="0.31" stop-color="#126AF8"/>
<stop offset="0.535" stop-color="#099FF4"/>
<stop offset="0.685" stop-color="#38A3F0"/>
<stop offset="0.86" stop-color="#21A1F2"/>
<stop offset="1" stop-color="#68A7EB"/>
</linearGradient>
<linearGradient id="paint9_linear_1512_631" x1="733.592" y1="182.726" x2="586.832" y2="720.584" gradientUnits="userSpaceOnUse">
<stop stop-color="#4446ED"/>
<stop offset="0.31" stop-color="#126AF8"/>
<stop offset="0.535" stop-color="#099FF4"/>
<stop offset="0.685" stop-color="#38A3F0"/>
<stop offset="0.86" stop-color="#21A1F2"/>
<stop offset="1" stop-color="#68A7EB"/>
</linearGradient>
<linearGradient id="paint10_linear_1512_631" x1="746.897" y1="184.786" x2="568.502" y2="712.995" gradientUnits="userSpaceOnUse">
<stop stop-color="#4446ED"/>
<stop offset="0.31" stop-color="#126AF8"/>
<stop offset="0.535" stop-color="#099FF4"/>
<stop offset="0.685" stop-color="#38A3F0"/>
<stop offset="0.86" stop-color="#21A1F2"/>
<stop offset="1" stop-color="#68A7EB"/>
</linearGradient>
<linearGradient id="paint11_linear_1512_631" x1="757.397" y1="186.061" x2="549.997" y2="703.569" gradientUnits="userSpaceOnUse">
<stop stop-color="#4446ED"/>
<stop offset="0.31" stop-color="#126AF8"/>
<stop offset="0.535" stop-color="#099FF4"/>
<stop offset="0.685" stop-color="#38A3F0"/>
<stop offset="0.86" stop-color="#21A1F2"/>
<stop offset="1" stop-color="#68A7EB"/>
</linearGradient>
<linearGradient id="paint12_linear_1512_631" x1="765.515" y1="186.589" x2="531.707" y2="692.715" gradientUnits="userSpaceOnUse">
<stop stop-color="#4446ED"/>
<stop offset="0.31" stop-color="#126AF8"/>
<stop offset="0.535" stop-color="#099FF4"/>
<stop offset="0.685" stop-color="#38A3F0"/>
<stop offset="0.86" stop-color="#21A1F2"/>
<stop offset="1" stop-color="#68A7EB"/>
</linearGradient>
<linearGradient id="paint13_linear_1512_631" x1="771.64" y1="186.44" x2="513.96" y2="680.838" gradientUnits="userSpaceOnUse">
<stop stop-color="#4446ED"/>
<stop offset="0.31" stop-color="#126AF8"/>
<stop offset="0.535" stop-color="#099FF4"/>
<stop offset="0.685" stop-color="#38A3F0"/>
<stop offset="0.86" stop-color="#21A1F2"/>
<stop offset="1" stop-color="#68A7EB"/>
</linearGradient>
<linearGradient id="paint14_linear_1512_631" x1="776.125" y1="185.71" x2="497.026" y2="668.341" gradientUnits="userSpaceOnUse">
<stop stop-color="#4446ED"/>
<stop offset="0.31" stop-color="#126AF8"/>
<stop offset="0.535" stop-color="#099FF4"/>
<stop offset="0.685" stop-color="#38A3F0"/>
<stop offset="0.86" stop-color="#21A1F2"/>
<stop offset="1" stop-color="#68A7EB"/>
</linearGradient>
<linearGradient id="paint15_linear_1512_631" x1="779.281" y1="184.507" x2="481.123" y2="655.602" gradientUnits="userSpaceOnUse">
<stop stop-color="#4446ED"/>
<stop offset="0.31" stop-color="#126AF8"/>
<stop offset="0.535" stop-color="#099FF4"/>
<stop offset="0.685" stop-color="#38A3F0"/>
<stop offset="0.86" stop-color="#21A1F2"/>
<stop offset="1" stop-color="#68A7EB"/>
</linearGradient>
<linearGradient id="paint16_linear_1512_631" x1="781.386" y1="182.949" x2="466.423" y2="642.979" gradientUnits="userSpaceOnUse">
<stop stop-color="#4446ED"/>
<stop offset="0.31" stop-color="#126AF8"/>
<stop offset="0.535" stop-color="#099FF4"/>
<stop offset="0.685" stop-color="#38A3F0"/>
<stop offset="0.86" stop-color="#21A1F2"/>
<stop offset="1" stop-color="#68A7EB"/>
</linearGradient>
<linearGradient id="paint17_linear_1512_631" x1="782.681" y1="181.16" x2="453.064" y2="630.806" gradientUnits="userSpaceOnUse">
<stop stop-color="#4446ED"/>
<stop offset="0.31" stop-color="#126AF8"/>
<stop offset="0.535" stop-color="#099FF4"/>
<stop offset="0.685" stop-color="#38A3F0"/>
<stop offset="0.86" stop-color="#21A1F2"/>
<stop offset="1" stop-color="#68A7EB"/>
</linearGradient>
<linearGradient id="paint18_linear_1512_631" x1="783.375" y1="179.261" x2="441.147" y2="619.385" gradientUnits="userSpaceOnUse">
<stop stop-color="#4446ED"/>
<stop offset="0.31" stop-color="#126AF8"/>
<stop offset="0.535" stop-color="#099FF4"/>
<stop offset="0.685" stop-color="#38A3F0"/>
<stop offset="0.86" stop-color="#21A1F2"/>
<stop offset="1" stop-color="#68A7EB"/>
</linearGradient>
<linearGradient id="paint19_linear_1512_631" x1="783.647" y1="177.366" x2="430.753" y2="608.985" gradientUnits="userSpaceOnUse">
<stop stop-color="#4446ED"/>
<stop offset="0.31" stop-color="#126AF8"/>
<stop offset="0.535" stop-color="#099FF4"/>
<stop offset="0.685" stop-color="#38A3F0"/>
<stop offset="0.86" stop-color="#21A1F2"/>
<stop offset="1" stop-color="#68A7EB"/>
</linearGradient>
<linearGradient id="paint20_linear_1512_631" x1="783.644" y1="175.584" x2="421.935" y2="599.844" gradientUnits="userSpaceOnUse">
<stop stop-color="#4446ED"/>
<stop offset="0.31" stop-color="#126AF8"/>
<stop offset="0.535" stop-color="#099FF4"/>
<stop offset="0.685" stop-color="#38A3F0"/>
<stop offset="0.86" stop-color="#21A1F2"/>
<stop offset="1" stop-color="#68A7EB"/>
</linearGradient>
<linearGradient id="paint21_linear_1512_631" x1="783.488" y1="174.006" x2="414.736" y2="592.158" gradientUnits="userSpaceOnUse">
<stop stop-color="#4446ED"/>
<stop offset="0.31" stop-color="#126AF8"/>
<stop offset="0.535" stop-color="#099FF4"/>
<stop offset="0.685" stop-color="#38A3F0"/>
<stop offset="0.86" stop-color="#21A1F2"/>
<stop offset="1" stop-color="#68A7EB"/>
</linearGradient>
</defs>
</svg>
